<svg width="112" height="65" viewBox="0 0 112 65" fill="none" xmlns="http://www.w3.org/2000/svg">
<path opacity="0.5" d="M47.596 57.06C47.412 57.06 47.264 57.004 47.152 56.892C47.04 56.772 46.984 56.62 46.984 56.436V49.14C46.984 48.956 47.036 48.812 47.14 48.708C47.252 48.596 47.404 48.54 47.596 48.54H51.892C52.276 48.54 52.468 48.708 52.468 49.044C52.468 49.38 52.276 49.548 51.892 49.548H48.208V52.2H51.652C52.036 52.2 52.228 52.368 52.228 52.704C52.228 53.04 52.036 53.208 51.652 53.208H48.208V56.436C48.208 56.628 48.152 56.78 48.04 56.892C47.936 57.004 47.788 57.06 47.596 57.06ZM54.659 57.06C54.483 57.06 54.335 57.012 54.215 56.916C54.103 56.82 54.047 56.676 54.047 56.484V51.612C54.047 51.42 54.103 51.276 54.215 51.18C54.335 51.076 54.483 51.024 54.659 51.024C54.835 51.024 54.979 51.076 55.091 51.18C55.203 51.276 55.259 51.42 55.259 51.612V56.484C55.259 56.676 55.203 56.82 55.091 56.916C54.979 57.012 54.835 57.06 54.659 57.06ZM54.659 49.848C54.427 49.848 54.243 49.784 54.107 49.656C53.971 49.528 53.903 49.36 53.903 49.152C53.903 48.944 53.971 48.78 54.107 48.66C54.243 48.532 54.427 48.468 54.659 48.468C54.883 48.468 55.063 48.532 55.199 48.66C55.343 48.78 55.415 48.944 55.415 49.152C55.415 49.36 55.347 49.528 55.211 49.656C55.075 49.784 54.891 49.848 54.659 49.848ZM60.1093 51C61.5093 51 62.2093 51.788 62.2093 53.364V56.484C62.2093 56.668 62.1533 56.812 62.0413 56.916C61.9373 57.012 61.7893 57.06 61.5973 57.06C61.4133 57.06 61.2653 57.008 61.1533 56.904C61.0493 56.8 60.9973 56.66 60.9973 56.484V53.424C60.9973 52.928 60.8973 52.564 60.6973 52.332C60.5053 52.1 60.2013 51.984 59.7853 51.984C59.2973 51.984 58.9053 52.136 58.6093 52.44C58.3133 52.744 58.1653 53.152 58.1653 53.664V56.484C58.1653 56.66 58.1093 56.8 57.9973 56.904C57.8933 57.008 57.7493 57.06 57.5653 57.06C57.3813 57.06 57.2333 57.008 57.1213 56.904C57.0093 56.8 56.9533 56.66 56.9533 56.484V51.6C56.9533 51.432 57.0093 51.296 57.1213 51.192C57.2413 51.08 57.3893 51.024 57.5653 51.024C57.7413 51.024 57.8813 51.076 57.9853 51.18C58.0893 51.284 58.1413 51.42 58.1413 51.588V52.08C58.3333 51.728 58.6013 51.46 58.9453 51.276C59.2893 51.092 59.6773 51 60.1093 51ZM66.3273 51C67.1033 51 67.6793 51.196 68.0553 51.588C68.4393 51.98 68.6313 52.576 68.6313 53.376V56.484C68.6313 56.668 68.5793 56.812 68.4753 56.916C68.3713 57.012 68.2273 57.06 68.0433 57.06C67.8673 57.06 67.7273 57.008 67.6233 56.904C67.5193 56.8 67.4673 56.66 67.4673 56.484V56.04C67.3153 56.376 67.0873 56.636 66.7833 56.82C66.4873 56.996 66.1393 57.084 65.7393 57.084C65.3553 57.084 65.0033 57.008 64.6833 56.856C64.3713 56.696 64.1233 56.48 63.9393 56.208C63.7553 55.936 63.6633 55.628 63.6633 55.284C63.6553 54.852 63.7633 54.516 63.9873 54.276C64.2113 54.028 64.5753 53.852 65.0793 53.748C65.5833 53.636 66.2833 53.58 67.1793 53.58H67.4553V53.232C67.4553 52.784 67.3633 52.46 67.1793 52.26C66.9953 52.06 66.6993 51.96 66.2913 51.96C66.0113 51.96 65.7473 51.996 65.4993 52.068C65.2513 52.14 64.9793 52.244 64.6833 52.38C64.4673 52.5 64.3153 52.56 64.2273 52.56C64.1073 52.56 64.0073 52.516 63.9273 52.428C63.8553 52.34 63.8193 52.228 63.8193 52.092C63.8193 51.972 63.8513 51.868 63.9153 51.78C63.9873 51.684 64.0993 51.592 64.2513 51.504C64.5313 51.352 64.8593 51.232 65.2353 51.144C65.6113 51.048 65.9753 51 66.3273 51ZM65.9553 56.184C66.3953 56.184 66.7553 56.036 67.0353 55.74C67.3153 55.436 67.4553 55.048 67.4553 54.576V54.264H67.2393C66.6153 54.264 66.1353 54.292 65.7993 54.348C65.4633 54.404 65.2233 54.5 65.0793 54.636C64.9353 54.764 64.8633 54.952 64.8633 55.2C64.8633 55.488 64.9673 55.724 65.1753 55.908C65.3833 56.092 65.6433 56.184 65.9553 56.184ZM73.4452 51C74.8452 51 75.5452 51.788 75.5452 53.364V56.484C75.5452 56.668 75.4892 56.812 75.3772 56.916C75.2732 57.012 75.1252 57.06 74.9332 57.06C74.7492 57.06 74.6012 57.008 74.4892 56.904C74.3852 56.8 74.3332 56.66 74.3332 56.484V53.424C74.3332 52.928 74.2332 52.564 74.0332 52.332C73.8412 52.1 73.5372 51.984 73.1212 51.984C72.6332 51.984 72.2412 52.136 71.9452 52.44C71.6492 52.744 71.5012 53.152 71.5012 53.664V56.484C71.5012 56.66 71.4452 56.8 71.3332 56.904C71.2292 57.008 71.0852 57.06 70.9012 57.06C70.7172 57.06 70.5692 57.008 70.4572 56.904C70.3452 56.8 70.2892 56.66 70.2892 56.484V51.6C70.2892 51.432 70.3452 51.296 70.4572 51.192C70.5772 51.08 70.7252 51.024 70.9012 51.024C71.0772 51.024 71.2172 51.076 71.3212 51.18C71.4252 51.284 71.4772 51.42 71.4772 51.588V52.08C71.6692 51.728 71.9372 51.46 72.2812 51.276C72.6252 51.092 73.0132 51 73.4452 51ZM79.7113 57.084C79.1433 57.084 78.6433 56.96 78.2113 56.712C77.7873 56.464 77.4553 56.112 77.2153 55.656C76.9833 55.2 76.8673 54.672 76.8673 54.072C76.8673 53.464 76.9873 52.928 77.2273 52.464C77.4753 52 77.8193 51.64 78.2593 51.384C78.6993 51.128 79.2033 51 79.7713 51C80.0753 51 80.3793 51.044 80.6833 51.132C80.9953 51.22 81.2713 51.34 81.5113 51.492C81.7673 51.668 81.8953 51.872 81.8953 52.104C81.8953 52.24 81.8593 52.356 81.7873 52.452C81.7153 52.54 81.6233 52.584 81.5113 52.584C81.4393 52.584 81.3673 52.568 81.2953 52.536C81.2233 52.496 81.1313 52.44 81.0193 52.368C80.8193 52.24 80.6313 52.144 80.4553 52.08C80.2873 52.008 80.0833 51.972 79.8433 51.972C79.2993 51.972 78.8753 52.156 78.5713 52.524C78.2753 52.892 78.1273 53.404 78.1273 54.06C78.1273 54.716 78.2753 55.224 78.5713 55.584C78.8673 55.936 79.2873 56.112 79.8313 56.112C80.0713 56.112 80.2833 56.076 80.4673 56.004C80.6513 55.932 80.8393 55.836 81.0313 55.716C81.1193 55.66 81.2073 55.612 81.2953 55.572C81.3833 55.532 81.4633 55.512 81.5353 55.512C81.6473 55.512 81.7393 55.56 81.8113 55.656C81.8833 55.744 81.9193 55.856 81.9193 55.992C81.9193 56.104 81.8873 56.208 81.8233 56.304C81.7673 56.392 81.6673 56.484 81.5233 56.58C81.2833 56.74 81.0033 56.864 80.6833 56.952C80.3633 57.04 80.0393 57.084 79.7113 57.084ZM87.5881 55.524C87.7001 55.524 87.7921 55.568 87.8641 55.656C87.9361 55.744 87.9721 55.856 87.9721 55.992C87.9721 56.224 87.8281 56.42 87.5401 56.58C87.2601 56.74 86.9521 56.864 86.6161 56.952C86.2881 57.04 85.9721 57.084 85.6681 57.084C84.7401 57.084 84.0081 56.816 83.4721 56.28C82.9361 55.736 82.6681 54.996 82.6681 54.06C82.6681 53.46 82.7841 52.928 83.0161 52.464C83.2561 52 83.5881 51.64 84.0121 51.384C84.4441 51.128 84.9321 51 85.4761 51C86.2601 51 86.8801 51.252 87.3361 51.756C87.7921 52.26 88.0201 52.94 88.0201 53.796C88.0201 54.116 87.8761 54.276 87.5881 54.276H83.8801C83.9601 55.516 84.5561 56.136 85.6681 56.136C85.9641 56.136 86.2201 56.096 86.4361 56.016C86.6521 55.936 86.8801 55.832 87.1201 55.704C87.1441 55.688 87.2081 55.656 87.3121 55.608C87.4241 55.552 87.5161 55.524 87.5881 55.524ZM85.5001 51.888C85.0361 51.888 84.6641 52.036 84.3841 52.332C84.1041 52.628 83.9361 53.044 83.8801 53.58H86.9761C86.9521 53.036 86.8121 52.62 86.5561 52.332C86.3081 52.036 85.9561 51.888 85.5001 51.888ZM94.9797 51C95.7557 51 96.3317 51.196 96.7077 51.588C97.0917 51.98 97.2837 52.576 97.2837 53.376V56.484C97.2837 56.668 97.2317 56.812 97.1277 56.916C97.0237 57.012 96.8797 57.06 96.6957 57.06C96.5197 57.06 96.3797 57.008 96.2757 56.904C96.1717 56.8 96.1197 56.66 96.1197 56.484V56.04C95.9677 56.376 95.7397 56.636 95.4357 56.82C95.1397 56.996 94.7917 57.084 94.3917 57.084C94.0077 57.084 93.6557 57.008 93.3357 56.856C93.0237 56.696 92.7757 56.48 92.5917 56.208C92.4077 55.936 92.3157 55.628 92.3157 55.284C92.3077 54.852 92.4157 54.516 92.6397 54.276C92.8637 54.028 93.2277 53.852 93.7317 53.748C94.2357 53.636 94.9357 53.58 95.8317 53.58H96.1077V53.232C96.1077 52.784 96.0157 52.46 95.8317 52.26C95.6477 52.06 95.3517 51.96 94.9437 51.96C94.6637 51.96 94.3997 51.996 94.1517 52.068C93.9037 52.14 93.6317 52.244 93.3357 52.38C93.1197 52.5 92.9677 52.56 92.8797 52.56C92.7597 52.56 92.6597 52.516 92.5797 52.428C92.5077 52.34 92.4717 52.228 92.4717 52.092C92.4717 51.972 92.5037 51.868 92.5677 51.78C92.6397 51.684 92.7517 51.592 92.9037 51.504C93.1837 51.352 93.5117 51.232 93.8877 51.144C94.2637 51.048 94.6277 51 94.9797 51ZM94.6077 56.184C95.0477 56.184 95.4077 56.036 95.6877 55.74C95.9677 55.436 96.1077 55.048 96.1077 54.576V54.264H95.8917C95.2677 54.264 94.7877 54.292 94.4517 54.348C94.1157 54.404 93.8757 54.5 93.7317 54.636C93.5877 54.764 93.5157 54.952 93.5157 55.2C93.5157 55.488 93.6197 55.724 93.8277 55.908C94.0357 56.092 94.2957 56.184 94.6077 56.184ZM102.086 51C102.59 51 103.038 51.128 103.43 51.384C103.83 51.64 104.138 52 104.354 52.464C104.578 52.928 104.69 53.464 104.69 54.072C104.69 54.672 104.582 55.2 104.366 55.656C104.15 56.112 103.842 56.464 103.442 56.712C103.05 56.96 102.598 57.084 102.086 57.084C101.646 57.084 101.258 56.992 100.922 56.808C100.586 56.616 100.33 56.344 100.154 55.992V58.668C100.154 58.836 100.098 58.968 99.9856 59.064C99.8816 59.168 99.7416 59.22 99.5656 59.22C99.3816 59.22 99.2296 59.168 99.1096 59.064C98.9976 58.96 98.9416 58.82 98.9416 58.644V51.612C98.9416 51.436 98.9976 51.296 99.1096 51.192C99.2216 51.08 99.3696 51.024 99.5536 51.024C99.7296 51.024 99.8736 51.08 99.9856 51.192C100.098 51.296 100.154 51.436 100.154 51.612V52.104C100.33 51.752 100.586 51.48 100.922 51.288C101.258 51.096 101.646 51 102.086 51ZM101.798 56.124C102.326 56.124 102.734 55.948 103.022 55.596C103.31 55.236 103.454 54.728 103.454 54.072C103.454 53.408 103.306 52.892 103.01 52.524C102.722 52.156 102.318 51.972 101.798 51.972C101.27 51.972 100.862 52.152 100.574 52.512C100.294 52.872 100.154 53.384 100.154 54.048C100.154 54.712 100.294 55.224 100.574 55.584C100.862 55.944 101.27 56.124 101.798 56.124ZM109.175 51C109.679 51 110.127 51.128 110.519 51.384C110.919 51.64 111.227 52 111.443 52.464C111.667 52.928 111.779 53.464 111.779 54.072C111.779 54.672 111.671 55.2 111.455 55.656C111.239 56.112 110.931 56.464 110.531 56.712C110.139 56.96 109.687 57.084 109.175 57.084C108.735 57.084 108.347 56.992 108.011 56.808C107.675 56.616 107.419 56.344 107.243 55.992V58.668C107.243 58.836 107.187 58.968 107.075 59.064C106.971 59.168 106.831 59.22 106.655 59.22C106.471 59.22 106.319 59.168 106.199 59.064C106.087 58.96 106.031 58.82 106.031 58.644V51.612C106.031 51.436 106.087 51.296 106.199 51.192C106.311 51.08 106.459 51.024 106.643 51.024C106.819 51.024 106.963 51.08 107.075 51.192C107.187 51.296 107.243 51.436 107.243 51.612V52.104C107.419 51.752 107.675 51.48 108.011 51.288C108.347 51.096 108.735 51 109.175 51ZM108.887 56.124C109.415 56.124 109.823 55.948 110.111 55.596C110.399 55.236 110.543 54.728 110.543 54.072C110.543 53.408 110.395 52.892 110.099 52.524C109.811 52.156 109.407 51.972 108.887 51.972C108.359 51.972 107.951 52.152 107.663 52.512C107.383 52.872 107.243 53.384 107.243 54.048C107.243 54.712 107.383 55.224 107.663 55.584C107.951 55.944 108.359 56.124 108.887 56.124Z" fill="#3160FF"/>
<path d="M10.016 56C10.1867 56.2027 10.272 56.432 10.272 56.688C10.272 57.04 10.1333 57.36 9.856 57.648C9.57867 57.9253 9.25867 58.064 8.896 58.064C8.512 58.064 8.17067 57.888 7.872 57.536L4.064 52.928L3.776 56.624C3.73333 57.0827 3.568 57.4453 3.28 57.712C3.00267 57.968 2.63467 58.096 2.176 58.096C1.71733 58.096 1.36533 57.968 1.12 57.712C0.885333 57.456 0.789333 57.0987 0.832 56.64L1.504 48.096C1.54667 47.648 1.70667 47.296 1.984 47.04C2.26133 46.7733 2.62933 46.64 3.088 46.64C3.54667 46.64 3.89867 46.7733 4.144 47.04C4.38933 47.296 4.49067 47.6427 4.448 48.08L4.176 51.584L8.432 47.088C8.74133 46.768 9.072 46.608 9.424 46.608C9.75467 46.608 10.032 46.7307 10.256 46.976C10.4907 47.2107 10.608 47.4987 10.608 47.84C10.608 48.2347 10.4373 48.6027 10.096 48.944L6.944 52.224L10.016 56ZM13.3479 58.096C12.8892 58.096 12.5372 57.968 12.2919 57.712C12.0572 57.4453 11.9612 57.088 12.0039 56.64L12.6759 48.096C12.7185 47.648 12.8785 47.296 13.1559 47.04C13.4439 46.7733 13.8119 46.64 14.2599 46.64C14.7185 46.64 15.0705 46.7733 15.3159 47.04C15.5612 47.296 15.6625 47.6427 15.6199 48.08L14.9479 56.624C14.9052 57.072 14.7399 57.4293 14.4519 57.696C14.1745 57.9627 13.8065 58.096 13.3479 58.096ZM26.4283 46.64C26.8443 46.64 27.1696 46.7733 27.4043 47.04C27.6496 47.3067 27.7509 47.6533 27.7083 48.08L27.0363 56.64C26.9936 57.0773 26.8336 57.4293 26.5563 57.696C26.2896 57.9627 25.9536 58.096 25.5483 58.096C25.0363 58.096 24.6789 57.9413 24.4763 57.632L20.1243 51.664L19.7243 56.624C19.6923 57.072 19.5429 57.4293 19.2763 57.696C19.0096 57.9627 18.6629 58.096 18.2363 58.096C17.8309 58.096 17.5109 57.9627 17.2763 57.696C17.0416 57.4293 16.9456 57.0773 16.9883 56.64L17.6603 48.08C17.7029 47.6533 17.8629 47.3067 18.1403 47.04C18.4176 46.7733 18.7589 46.64 19.1643 46.64C19.6443 46.64 19.9909 46.7947 20.2043 47.104L24.5563 53.088L24.9563 48.096C24.9883 47.6587 25.1376 47.3067 25.4043 47.04C25.6816 46.7733 26.0229 46.64 26.4283 46.64ZM38.3616 51.632C38.703 51.632 38.9643 51.728 39.1456 51.92C39.327 52.1013 39.407 52.3573 39.3856 52.688L39.1616 55.488C39.119 56.0213 39.0443 56.432 38.9376 56.72C38.8416 56.9973 38.6816 57.216 38.4576 57.376C38.2443 57.536 37.919 57.68 37.4816 57.808C37.0656 57.9147 36.6016 57.9947 36.0896 58.048C35.5883 58.112 35.1083 58.144 34.6496 58.144C33.519 58.144 32.5376 57.9253 31.7056 57.488C30.8843 57.04 30.2496 56.4053 29.8016 55.584C29.3536 54.752 29.1296 53.7813 29.1296 52.672C29.1296 51.4453 29.3803 50.3733 29.8816 49.456C30.383 48.5387 31.0923 47.8293 32.0096 47.328C32.9376 46.8267 34.0203 46.576 35.2576 46.576C36.015 46.576 36.6976 46.656 37.3056 46.816C37.9136 46.9653 38.4043 47.1413 38.7776 47.344C39.023 47.4933 39.2043 47.6693 39.3216 47.872C39.4496 48.0747 39.5136 48.288 39.5136 48.512C39.5136 48.8213 39.407 49.0933 39.1936 49.328C38.9803 49.5627 38.719 49.68 38.4096 49.68C38.1856 49.68 37.951 49.6053 37.7056 49.456C37.343 49.2747 36.9856 49.136 36.6336 49.04C36.2816 48.944 35.8336 48.896 35.2896 48.896C34.287 48.896 33.503 49.2373 32.9376 49.92C32.383 50.592 32.1056 51.5147 32.1056 52.688C32.1056 53.7333 32.351 54.5333 32.8416 55.088C33.3323 55.632 34.079 55.904 35.0816 55.904C35.5296 55.904 36.0096 55.84 36.5216 55.712L36.6816 53.648H35.6256C34.879 53.648 34.5056 53.3227 34.5056 52.672C34.5056 52.352 34.6123 52.1013 34.8256 51.92C35.0496 51.728 35.3376 51.632 35.6896 51.632H38.3616Z" fill="#3160FF"/>
<g clip-path="url(#clip0)">
<path d="M11.1936 21.8232H11.3239C13.2245 21.1613 16.2003 20.5 20.5 20.5C24.799 20.5 27.7755 21.1613 29.6767 21.8232H29.8063C30.0146 16.4892 30.8524 14.307 31.5435 12.507C32.0613 11.1593 32.4032 10.2692 32.4032 7.93547C32.4032 5.63352 29.9174 5.29031 28.4354 5.29031C26.2889 5.29031 25.0278 4.65084 24.0147 4.13702C23.0995 3.67346 22.3767 3.30644 20.5 3.30644C18.6232 3.30644 17.9004 3.67346 16.9852 4.13702C15.9721 4.65084 14.711 5.29031 12.5645 5.29031C11.0825 5.29031 8.59676 5.63352 8.59676 7.93547C8.59676 10.2692 8.93864 11.1593 9.45643 12.507C10.1475 14.307 10.9853 16.4886 11.1936 21.8232Z" fill="#3160FF"/>
<path d="M4.62901 21.8225C3.53524 21.8225 2.64514 22.7126 2.64514 23.8064C2.64514 24.9002 3.53524 25.7903 4.62901 25.7903C5.72278 25.7903 6.61288 24.9002 6.61288 23.8064C6.61288 22.7126 5.72278 21.8225 4.62901 21.8225ZM4.62901 24.4677C4.26398 24.4677 3.96772 24.1714 3.96772 23.8064C3.96772 23.4414 4.26398 23.1451 4.62901 23.1451C4.99404 23.1451 5.2903 23.4414 5.2903 23.8064C5.2903 24.1714 4.99404 24.4677 4.62901 24.4677Z" fill="#3160FF"/>
<path d="M40.9983 23.6907C40.9375 21.2214 38.9556 19.2395 36.4863 19.1787C35.2788 19.1642 34.105 19.6125 33.2116 20.4847C33.203 20.4933 33.1957 20.5026 33.1872 20.5112C33.4444 16.7934 34.0653 15.1627 34.6301 13.6926C35.1849 12.2477 35.7093 10.8822 35.7093 7.93547C35.7093 4.31954 32.8545 1.98387 28.4351 1.98387C27.0788 1.98387 26.3858 1.63272 25.5089 1.18834C24.4112 0.63087 23.1666 0 20.4997 0C17.8327 0 16.5881 0.63087 15.4904 1.18834C14.6135 1.63272 13.9205 1.98387 12.5642 1.98387C8.1448 1.98387 5.29002 4.31954 5.29002 7.93547C5.29002 10.8822 5.81442 12.2477 6.36924 13.692C6.93398 15.162 7.55493 16.7928 7.81217 20.5105C7.80358 20.5019 7.7963 20.4927 7.78771 20.4841C6.89364 19.6125 5.72052 19.1542 4.513 19.178C2.04375 19.2389 0.0618668 21.2208 0.00102819 23.69C-0.0287298 24.9081 0.434834 26.0713 1.30707 26.9647C2.0173 27.6928 2.94839 28.1749 3.94363 28.3534C3.89734 28.8666 3.79021 29.1893 3.67118 29.5477C3.49991 30.0615 3.30615 30.6428 3.30615 31.7419C3.30615 33.2807 3.83915 34.3969 5.95131 35.1475V37.0322C4.85753 37.0322 3.96744 37.9223 3.96744 39.016C3.96744 40.1098 4.85753 40.9999 5.95131 40.9999H6.61259C8.43577 40.9999 9.91904 39.5166 9.91904 37.6935V35.951C12.43 36.236 15.8521 36.3709 20.4997 36.3709C25.1472 36.3709 28.5694 36.236 31.0803 35.951V37.6935C31.0803 39.5166 32.5636 40.9999 34.3867 40.9999H35.048C36.1418 40.9999 37.0319 40.1098 37.0319 39.016C37.0319 37.9223 36.1418 37.0322 35.048 37.0322V35.1475C37.1602 34.3969 37.6932 33.2807 37.6932 31.7419C37.6932 30.6428 37.4994 30.0615 37.3281 29.549C37.2091 29.1906 37.1013 28.8679 37.0557 28.3547C38.0509 28.1755 38.982 27.6941 39.6922 26.966C40.5645 26.072 41.0281 24.9088 40.9983 23.6907ZM6.61259 7.93547C6.61259 5.08068 8.89272 3.30644 12.5642 3.30644C14.2366 3.30644 15.1776 2.82899 16.0882 2.36741C17.1013 1.85425 18.1488 1.32258 20.4997 1.32258C22.8505 1.32258 23.898 1.85425 24.9111 2.36741C25.8217 2.82899 26.7627 3.30644 28.4351 3.30644C32.1066 3.30644 34.3867 5.08068 34.3867 7.93547C34.3867 10.6368 33.9278 11.8331 33.3955 13.2178C32.7209 14.9756 31.9677 16.9402 31.7839 21.9991C30.1968 21.1758 26.6754 19.8387 20.4997 19.8387C14.3239 19.8387 10.8025 21.1758 9.21543 21.9998C9.03159 16.9409 8.27904 14.9756 7.60387 13.2185C7.07153 11.8331 6.61259 10.6368 6.61259 7.93547ZM8.59646 37.6935C8.59646 38.7872 7.70637 39.6773 6.61259 39.6773H5.95131C5.58627 39.6773 5.29002 39.3811 5.29002 39.016C5.29002 38.651 5.58627 38.3548 5.95131 38.3548C6.68005 38.3548 7.27388 37.7609 7.27388 37.0322V35.5225C7.67529 35.6137 8.11438 35.6977 8.59646 35.7737V37.6935ZM35.048 38.3548C35.413 38.3548 35.7093 38.651 35.7093 39.016C35.7093 39.3811 35.413 39.6773 35.048 39.6773H34.3867C33.293 39.6773 32.4029 38.7872 32.4029 37.6935V35.7731C32.8849 35.697 33.324 35.6131 33.7254 35.5218V37.0322C33.7254 37.7609 34.3193 38.3548 35.048 38.3548ZM38.7466 26.0416C38.082 26.722 37.1549 27.1128 36.2006 27.1128H34.3867V28.4354H35.7371C35.7959 29.1265 35.9414 29.5689 36.0743 29.967C36.233 30.4444 36.3706 30.8571 36.3706 31.7419C36.3706 33.6153 35.2014 35.0483 20.4997 35.0483C5.79789 35.0483 4.62873 33.6153 4.62873 31.7419C4.62873 30.8571 4.76628 30.4444 4.92499 29.967C5.0579 29.5689 5.20339 29.1265 5.26224 28.4354H6.61259V27.1128H4.79868C3.8451 27.1128 2.91731 26.722 2.25272 26.0416C1.63243 25.4054 1.30178 24.5821 1.32361 23.7231C1.36593 21.9594 2.78175 20.5436 4.54541 20.5013C5.39582 20.4768 6.22772 20.8101 6.86388 21.4304C7.53443 22.0851 7.91996 22.9957 7.9312 23.9347C7.93187 24.1132 7.93517 24.2825 7.93517 24.4677V25.6501C7.93517 26.9885 7.72091 28.3104 7.29769 29.5795L6.64698 31.5322L7.90079 31.9508L8.55149 29.9981C8.65069 29.7005 8.73401 29.3989 8.8127 29.0967H29.0964V27.7741H9.08978C9.19956 27.0732 9.25775 26.3643 9.25775 25.6501V23.9764C9.25775 23.9453 9.25378 23.9149 9.25312 23.8838C9.25246 23.7561 9.2518 23.6259 9.24981 23.5015C10.126 22.952 13.5171 21.1612 20.4997 21.1612C27.4822 21.1612 30.8733 22.952 31.7495 23.5015C31.7482 23.6259 31.7475 23.7561 31.7462 23.8838C31.7455 23.9149 31.7416 23.9453 31.7416 23.9764V25.6501C31.7416 26.3643 31.7998 27.0732 31.9095 27.7741H30.419V29.0967H32.1866C32.2653 29.3989 32.3486 29.7005 32.4478 29.9981L33.0985 31.9508L34.3523 31.5322L33.7016 29.5795C33.2784 28.3104 33.0642 26.9885 33.0642 25.6501V24.4677C33.0642 24.2825 33.0675 24.1132 33.0681 23.9347C33.0794 22.9957 33.4649 22.0851 34.1354 21.4304C34.7716 20.8101 35.6022 20.4854 36.4539 20.5013C38.2176 20.5436 39.6334 21.9594 39.6757 23.7231C39.6969 24.5821 39.3669 25.4054 38.7466 26.0416Z" fill="#3160FF"/>
<path d="M36.3709 21.8225C35.2771 21.8225 34.387 22.7126 34.387 23.8064C34.387 24.9002 35.2771 25.7903 36.3709 25.7903C37.4646 25.7903 38.3547 24.9002 38.3547 23.8064C38.3547 22.7126 37.4646 21.8225 36.3709 21.8225ZM36.3709 24.4677C36.0058 24.4677 35.7096 24.1714 35.7096 23.8064C35.7096 23.4414 36.0058 23.1451 36.3709 23.1451C36.7359 23.1451 37.0322 23.4414 37.0322 23.8064C37.0322 24.1714 36.7359 24.4677 36.3709 24.4677Z" fill="#3160FF"/>
<path d="M13.2258 31.7419H11.9032V33.0644H13.2258V31.7419Z" fill="#3160FF"/>
<path d="M17.1935 31.7419H15.8709V33.0644H17.1935V31.7419Z" fill="#3160FF"/>
<path d="M21.1612 31.7419H19.8387V33.0644H21.1612V31.7419Z" fill="#3160FF"/>
<path d="M25.129 31.7419H23.8064V33.0644H25.129V31.7419Z" fill="#3160FF"/>
<path d="M29.0967 31.7419H27.7741V33.0644H29.0967V31.7419Z" fill="#3160FF"/>
</g>
<path d="M28.767 8.48316C28.5661 8.31173 28.2828 8.27561 28.0453 8.39122L24.4114 10.1603L21.0017 6.22897C20.8756 6.08354 20.6925 6 20.5 6C20.3075 6 20.1245 6.08354 19.9983 6.22897L16.5886 10.1603L12.9548 8.39119C12.7173 8.27561 12.4339 8.3117 12.233 8.48313C12.0321 8.65456 11.9519 8.92875 12.0287 9.18142L14.5522 17.4822C14.6372 17.7619 14.8952 17.9531 15.1875 17.9531H25.8125C26.1048 17.9531 26.3628 17.7619 26.4478 17.4822L28.9713 9.18146C29.0481 8.92878 28.9679 8.65459 28.767 8.48316ZM25.3203 16.625H15.6797L13.7422 10.2517L16.4656 11.5776C16.736 11.7092 17.061 11.6427 17.258 11.4156L20.5 7.67759L23.7421 11.4156C23.9391 11.6427 24.2641 11.7091 24.5344 11.5776L27.2578 10.2517L25.3203 16.625Z" fill="white"/>
<defs>
<clipPath id="clip0">
<rect width="41" height="41" fill="white"/>
</clipPath>
</defs>
</svg>
